# xmcd
#
# Track frame offsets: 
#        150
#        19394
#        45179
#        68352
#        89407
#        106840
#        128049
#        154942
#        168878
#        190567
#        214701
#        241260
#        263541
#        284840
#
# Disc length: 4021 seconds
#
# Revision: 0
# Processed by: cddbd v1.5.2PL0 Copyright (c) Steve Scherf et al.
# Submitted via: ExactAudioCopy v1.3
#
DISCID=b10fb30e
DTITLE=Climax Blues Band - Hands of Time
DYEAR=2019
DGENRE=Blues Rock
TTITLE0=Ain't That A Kick In The Head
TTITLE1=Straight Down The Middle
TTITLE2=What's Your Name
TTITLE3=Flood Of Emotion
TTITLE4=Top Of The World
TTITLE5=My Music
TTITLE6=17th Street Canal
TTITLE7=Simple Song
TTITLE8=The Cat
TTITLE9=Hands Of Time
TTITLE10=Faith
TTITLE11=Hard Luck
TTITLE12=Wrong Time
TTITLE13=Getting There
EXTD=
EXTT0=
EXTT1=
EXTT2=
EXTT3=
EXTT4=
EXTT5=
EXTT6=
EXTT7=
EXTT8=
EXTT9=
EXTT10=
EXTT11=
EXTT12=
EXTT13=
PLAYORDER=
